<svg
    xmlns="http://www.w3.org/2000/svg" 
    xmlns:xlink="http://www.w3.org/1999/xlink" 
    version="1.1" 
    x="0px" 
    y="0px" 
    width="current"
    height="current"
    viewBox="0 0 100 100"
    style="enable-background:new 0 0 100 100;" 
    xml:space="preserve">
    <g>
        <path fill="current" d="M30.5,65.7C30.5,65.7,30.5,65.7,30.5,65.7c1.1,0,2-0.9,2-2l0-28.4l35.6,35.6c0.4,0.4,0.9,0.6,1.4,0.6s1-0.2,1.4-0.6   c0.8-0.8,0.8-2,0-2.8L35.3,32.5l28.3,0c0,0,0,0,0,0c1.1,0,2-0.9,2-2c0-1.1-0.9-2-2-2l-33.2,0c0,0,0,0,0,0c-0.1,0-0.3,0-0.4,0   c0,0-0.1,0-0.1,0c-0.1,0-0.2,0-0.3,0.1c0,0-0.1,0-0.1,0.1c-0.1,0-0.2,0.1-0.2,0.1c-0.1,0.1-0.2,0.2-0.3,0.3   c-0.1,0.1-0.2,0.2-0.3,0.3c0,0.1-0.1,0.1-0.1,0.2c0,0.1-0.1,0.1-0.1,0.1c0,0.1-0.1,0.2-0.1,0.3c0,0,0,0.1,0,0.1c0,0.1,0,0.2,0,0.4   c0,0,0,0,0,0l0,33.2C28.5,64.8,29.4,65.7,30.5,65.7z"/>
    </g>
</svg>