<?xml version="1.0" encoding="UTF-8"?>
<svg id="_레이어_2" data-name="레이어 2" xmlns="http://www.w3.org/2000/svg" viewBox="0 0 758 288">
  <defs>
    <style>
      .cls-1 {
        fill: #fff;
      }

      .cls-2, .cls-3 {
        fill: none;
        stroke: #fff;
        stroke-miterlimit: 10;
        stroke-width: 3px;
      }

      .cls-4 {
        fill: #150026;
      }

      .cls-3 {
        stroke-dasharray: 0 0 14.31 19.08;
      }
    </style>
  </defs>
  <g id="_레이어_1-2" data-name="레이어 1">
    <path class="cls-4" d="M756,263.31c.67,0,1.34,.03,2,.07V24.61c-.66,.04-1.33,.07-2,.07-14.91,0-27-11.05-27-24.69h-152c0,13.63-12.09,24.69-27,24.69s-27-11.05-27-24.69H25C25,13.02,13.98,23.67,0,24.61v238.78c13.98,.94,25,11.59,25,24.61h498c0-13.63,12.09-24.69,27-24.69s27,11.05,27,24.69h152c0-13.63,12.09-24.69,27-24.69Z"/>
    <g>
      <line class="cls-2" x1="550" y1="44.5" x2="550" y2="52"/>
      <line class="cls-3" x1="550" y1="71.08" x2="550" y2="228.46"/>
      <line class="cls-2" x1="550" y1="238" x2="550" y2="245.5"/>
    </g>
    <path class="cls-1" d="M715.19,18c4.95,10.11,13.83,17.95,24.81,21.9V248.1c-10.97,3.96-19.85,11.79-24.81,21.9h-124.39c-7.34-14.84-23.48-24.69-40.8-24.69s-33.46,9.84-40.8,24.69H38.78c-4.33-8.81-11.61-15.9-20.78-20.22V38.22c9.17-4.33,16.45-11.41,20.78-20.22H509.2c7.34,14.84,23.48,24.69,40.8,24.69s33.46-9.84,40.8-24.69h124.39m1.92-3h-128.23c-6.39,14.7-21.86,24.69-38.88,24.69s-32.49-9.99-38.88-24.69H36.87c-4.12,9.46-11.98,17.12-21.87,21.28V251.72c9.89,4.16,17.75,11.81,21.87,21.28H511.12c6.39-14.7,21.86-24.69,38.88-24.69s32.49,9.99,38.88,24.69h128.23c4.67-10.8,14.17-19.14,25.89-22.74V37.74c-11.72-3.61-21.22-11.94-25.89-22.74h0Z"/>
  </g>
</svg>