<?xml version="1.0" encoding="UTF-8"?>
<svg id="_레이어_2" data-name="레이어 2" xmlns="http://www.w3.org/2000/svg" viewBox="0 0 288 758">
  <defs>
    <style>
      .cls-1 {
        fill: #150026;
      }
    </style>
  </defs>
  <g id="_레이어_1-2" data-name="레이어 1">
    <path class="cls-1" d="M288,25C288,11.32,277.02,.22,263.39,0c0,0,0,0,0,0h-15.35c-1.27,4.06-5.06,7-9.54,7s-8.27-2.94-9.54-7h-7.92c-1.27,4.06-5.06,7-9.54,7s-8.27-2.94-9.54-7h-7.92c-1.27,4.06-5.06,7-9.54,7s-8.27-2.94-9.54-7h-7.92c-1.27,4.06-5.06,7-9.54,7s-8.27-2.94-9.54-7h-7.92c-1.27,4.06-5.06,7-9.54,7s-8.27-2.94-9.54-7h-7.92c-1.27,4.06-5.06,7-9.54,7s-8.27-2.94-9.54-7h-7.92c-1.27,4.06-5.06,7-9.54,7s-8.27-2.94-9.54-7h-7.92c-1.27,4.06-5.06,7-9.54,7s-8.27-2.94-9.54-7h-15.35s0,0,0,0C10.98,.22,0,11.32,0,25c0,1.36,.11,2.69,.32,3.99-.11,0-.21,0-.32,0V733c13.02,0,23.67,11.02,24.61,25h238.78c.94-13.98,11.59-25,24.61-25V29c-.11,0-.21,0-.32,0,.21-1.3,.32-2.63,.32-3.99Z"/>
  </g>
</svg>